<svg width="747" height="257" viewBox="0 0 747 257" fill="none" xmlns="http://www.w3.org/2000/svg">
  <path d="M292.726 201.5v-74.24h13.824v74.24zm0-84.736V102.94h13.824v13.824zm29 84.736v-57.6q0-4.608 2.304-8.32a18.4 18.4 0 0 1 6.016-6.016 15.9 15.9 0 0 1 8.32-2.304h41.472v13.824H338.75q-1.281 0-2.304 1.024-.896.896-.896 2.176V201.5zm83.137 0q-4.608 0-8.32-2.304a18.4 18.4 0 0 1-6.016-6.016q-2.304-3.712-2.304-8.32V143.9q0-4.608 2.304-8.32a18.4 18.4 0 0 1 6.016-6.016q3.712-2.304 8.32-2.304h42.24q4.608 0 8.32 2.304a15.7 15.7 0 0 1 6.016 6.016 15.9 15.9 0 0 1 2.304 8.32v27.392h-61.696v13.184q0 1.28.896 2.304 1.023.896 2.304.896h58.496V201.5zm-2.816-43.136h47.744v-14.08q0-1.28-.896-2.176-.897-1.024-2.176-1.024h-41.472q-1.281 0-2.304 1.024-.897.896-.896 2.176z" fill="#fff"/>
  <path d="M496.622 201.5q-4.608 0-8.448-2.176a18.4 18.4 0 0 1-6.016-6.016q-2.176-3.84-2.176-8.448v-58.88q0-4.608 2.176-8.32 2.304-3.84 6.016-6.016 3.84-2.304 8.448-2.304h58.88q4.48 0 8.32 2.304a15.7 15.7 0 0 1 6.016 6.016q2.304 3.712 2.304 8.32v58.88q0 4.608-2.304 8.448-2.176 3.712-6.016 6.016-3.84 2.176-8.32 2.176zm.384-13.824h58.112q1.28 0 2.176-.896.896-1.024.896-2.304v-58.112q0-1.28-.896-2.176-.897-1.024-2.176-1.024h-58.112q-1.281 0-2.304 1.024-.897.896-.896 2.176v58.112q0 1.28.896 2.304 1.023.896 2.304.896m88.976 43.264V127.26h58.88q4.608 0 8.32 2.304 3.84 2.304 6.016 6.016 2.304 3.712 2.304 8.32v40.96q0 4.608-2.304 8.32-2.176 3.712-6.016 6.016-3.712 2.304-8.32 2.304h-45.056v29.44zm17.024-43.264h41.472q1.28 0 2.176-.896 1.024-1.024 1.024-2.304v-40.192q0-1.28-1.024-2.176-.897-1.024-2.176-1.024h-41.472q-1.281 0-2.304 1.024-.896.896-.896 2.176v40.192q0 1.28.896 2.304 1.023.896 2.304.896m84.598 13.824q-4.609 0-8.32-2.304a18.4 18.4 0 0 1-6.016-6.016q-2.304-3.712-2.304-8.32v-1.92h13.824v1.536q0 1.28.896 2.304 1.023.896 2.304.896h41.472q1.28 0 2.176-.896.896-1.024.896-2.304v-9.984q0-1.28-.896-2.176-.897-1.024-2.176-1.024h-41.856q-4.609 0-8.32-2.176a18.4 18.4 0 0 1-6.016-6.016q-2.304-3.84-2.304-8.448V143.9q0-4.608 2.304-8.32a18.4 18.4 0 0 1 6.016-6.016q3.712-2.304 8.32-2.304h42.24q4.608 0 8.32 2.304 3.84 2.304 6.016 6.016 2.304 3.712 2.304 8.32v1.92h-13.952v-1.536q0-1.28-.896-2.176-.897-1.024-2.176-1.024h-41.472q-1.281 0-2.304 1.024-.897.896-.896 2.176v9.984q0 1.28.896 2.304 1.023.896 2.304.896h41.856q4.608 0 8.32 2.304a15.7 15.7 0 0 1 6.016 6.016q2.304 3.712 2.304 8.32v10.752q0 4.608-2.304 8.32-2.176 3.712-6.016 6.016-3.712 2.304-8.32 2.304z" fill="#bddd2f"/>
  <path d="m183.07 117.014 11-26h66s-8.422 5.26-12 10c-4.057 5.373-9 16-9 16zm-66.077 39 8.077-14s-32.314 2.323-53.005 4c-20.315 1.646-51.995 4.5-51.995 4.5s30.158 1.399 49.471 2.5c18.538 1.056 47.452 3 47.452 3Z" fill="#bddd2f" stroke="#bddd2f"/>
  <path d="m105.007 181.014 7.063-14s-34.168 2.33-56 4.5c-21.52 2.138-56 7-56 7s42.652-.161 69.621 1c13.605.585 35.316 1.5 35.316 1.5m-14.127 21 6.055-11s-23.398 1.51-38.343 3c-18.576 1.852-48.432 6.5-48.432 6.5s30.845-.647 49.946 0c12.026.407 30.775 1.5 30.775 1.5" fill="#bddd2f"/>
  <path d="m105.007 181.014 7.063-14s-34.168 2.33-56 4.5c-21.52 2.138-56 7-56 7s42.652-.161 69.621 1c13.605.585 35.316 1.5 35.316 1.5Zm-14.127 21 6.055-11s-23.398 1.51-38.343 3c-18.576 1.852-48.432 6.5-48.432 6.5s30.845-.647 49.946 0c12.026.407 30.775 1.5 30.775 1.5Z" stroke="#bddd2f"/>
  <path d="M312.545 58.183c3.69 5.43 8.525 14.486 8.525 14.486s-6.211-6.905-10.53-10.99c-4.129-3.904-6.422-6.164-11.032-9.49-3.917-2.827-6.262-4.228-10.53-6.495-4.176-2.217-6.62-3.287-11.031-4.995l-.19-.073c-4.674-1.81-7.388-2.86-12.346-3.923-5.772-1.237-9.139-1.469-15.043-1.498-5.107-.026-7.994.205-13.037.999-4.973.782-7.776 1.365-12.536 2.997-4.889 1.675-7.606 3.2-12.035 5.495-4.589 2.378-6.864 3.438-11.031 6.493-4.351 3.19-6.407 5.498-10.029 9.491-3.65 4.024-5.421 6.533-8.524 10.99-3.656 5.25-5.605 8.297-8.525 13.986-3.277 6.387-4.554 10.083-6.518 16.984-2.055 7.22-2.825 11.508-3.51 18.982-.677 7.384-1 11.583-.502 18.981.546 8.096 1.311 12.668 3.51 20.481 2.161 7.673 7.522 18.982 7.522 18.982s6.196 10.429 11.031 16.484c2.42 3.03 3.824 4.702 6.519 7.493 2.786 2.884 4.391 4.483 7.522 6.993 5.113 4.1 8.491 5.852 14.225 8.827l.316.164c6.226 3.231 9.757 5.221 16.547 6.994 6.673 1.741 10.652 1.976 17.551 1.998 7.092.022 11.636-.433 18.553-1.998 6.038-1.367 8.853-2.556 14.541-4.996 5.713-2.45 8.928-3.963 14.04-7.492 4.906-3.388 11.533-9.991 11.533-9.991l11.533-11.988s-7.505 12.657-13.539 19.481c-6.782 7.671-10.585 11.943-19.054 17.483-7.32 4.789-11.613 6.856-20.057 9.491-4.987 1.556-7.901 2.544-13.038 3.497-5.635 1.045-9.311 1.587-15.043 1.498-5.15-.08-8.011-.871-13.037-1.998-5.801-1.301-9.005-2.336-14.541-4.496-5.872-2.29-9.174-3.696-14.542-6.993-5.782-3.551-8.714-6.192-13.644-10.632l-.396-.357c-5.24-4.719-8.276-7.375-12.536-12.988-4.497-5.925-6.217-9.828-9.527-16.484-3.116-6.266-4.75-9.867-7.02-16.484-2.227-6.492-3.116-10.266-4.513-16.984-1.764-8.482-2.508-13.316-2.507-21.979.001-6.998.538-10.924 1.477-17.782l.027-.201c.752-5.497 1.201-8.592 2.507-13.986 1.395-5.758 2.556-8.893 4.513-14.486 1.796-5.132 2.68-8.076 5.015-12.988 2.515-5.292 4.294-8.093 7.521-12.987 3.075-4.663 4.912-7.226 8.524-11.49 3.127-3.69 8.525-8.99 8.525-8.99s6.006-6.024 10.53-8.992c3.511-2.304 5.741-3.174 9.527-4.995 3.473-1.671 5.419-2.634 9.026-3.996 3.648-1.378 5.724-2.13 9.527-2.998 4.238-.967 6.694-1.2 11.032-1.498 4.493-.31 7.035-.239 11.532 0 3.931.208 6.155.306 10.029.999 4.395.786 7.271 1.67 11.533 2.997 3.961 1.232 5.747 1.794 9.527 3.497 5.447 2.453 8.144 4.572 13.038 7.992 5.132 3.587 8.115 5.561 12.535 9.99 4.723 4.733 6.776 7.962 10.53 13.487Z" fill="#bddd2f" stroke="#bddd2f"/>
  <path d="m330.07 117.014 9-26h-66s-4.071 2.243-7.5 4.5c-3.238 2.13-4.868 3.655-7.5 6.5-2.175 2.35-3.19 3.857-5 6.5-2.669 3.896-6 10.5-6 10.5l-27 83h36l28-85z" fill="#fff" stroke="#fff"/>
  <path d="M199.43 247.461c.063.024 7.237 2.804 12.012 4.004 7.054 1.772 18.441 2.498 18.518 2.503-.07.006-8.553.8-14.013 1.001-5.86.216-9.158.24-15.016.5-2.935.13-7.508 0-7.508 0l-16.015-7.007c.069.003 7.657.289 12.512 0 3.728-.222 9.51-1.001 9.51-1.001m-84.086-58.059c.033.071 6.226 13.62 11.512 21.522 3.565 5.329 5.82 8.161 10.01 13.014 3.519 4.076 9.495 9.995 9.509 10.009 0 0 5.861 5.493 10.011 8.509 3.386 2.461 5.503 3.687 8.985 5.702l.524.304c4.388 2.542 12.013 6.507 12.013 6.507-.01-.001-7.288-.619-11.512-1.502-4.235-.886-6.553-1.754-10.511-3.503-5.212-2.303-7.808-4.292-12.512-7.508-7.335-5.013-11.377-8.094-17.518-14.515-6.566-6.864-9.493-11.456-14.516-19.519-4.356-6.993-9.987-18.972-10.009-19.02zm34.034 62.063c-.036-.01-4.3-1.16-7.006-2.002-2.348-.73-5.966-1.988-6.006-2.002h5.005zm-38.539-18.019s4.25.806 7.007 1.001c2.73.193 7.008 0 7.008 0l11.512 9.01h-10.511zm78.58 9.01c-.027.001-8.863.14-14.514.5-2.544.162-6.507.501-6.507.501l-12.012-10.011h20.02zm-51.552-35.036c2.335-1.479 4.505.001 7.008 1.002 2.295.918 3.581 1.516 6.005 2.002 1.924.386 4.996.5 5.005.5L169.9 226.94s-3.943.814-6.507 1.001c-2.339.171-3.713-.494-6.006 0-2.296.496-5.472 2.481-5.506 2.502-.026-.025-5.676-5.644-9.009-9.509-3.075-3.566-7.464-9.451-7.507-9.509 0 0 .944-3.019 2.502-4.005m-49.05 4.005c.019-.001 4.278-.104 7.007 0 4.107.155 10.471.996 10.51 1.001l13.514 16.516-16.516-1.502zm32.533-43.044c2.503-.501 5.005 1.501 8.509 3.003 3.137 1.344 8.509 2.002 8.509 2.002s2.732 8.666 5.005 14.014c2.384 5.613 6.975 13.956 7.006 14.014l-10.009-2.002c-2.503-.5-4.335-.832-6.507.501-2.154 1.323-2.499 5.46-2.503 5.505-.04-.076-4.93-9.327-7.507-15.516-2.471-5.935-5.506-15.515-5.506-15.515.004-.044.442-5.494 3.003-6.006m12.513-19.02s-.044 5.225.501 8.509c.496 2.994 2.002 7.508 2.002 7.508s-3.004-1.109-5.006-1.502c-1.928-.378-5.005-.5-5.005-.5s2.061-4.309 3.504-7.007c1.486-2.779 4.004-7.008 4.004-7.008m-69.07-42.042c.03.003 3.744.298 6.005 1.001 4.702 1.463 10.49 6.986 10.511 7.007l-.5 22.023s-5.32-3.399-9.01-5.005c-3.384-1.474-8.957-2.989-9.009-3.003 0 0 .112-6.725.5-11.012.39-4.308 1.495-10.967 1.503-11.011M183.414.711c4.47-.475 11.511 0 11.511 0s-13.758 4.6-22.022 9.01c-7.989 4.263-12.551 7.232-19.521 13.012-7.024 5.826-10.242 9.95-16.015 17.018-5.319 6.511-8.073 10.379-12.513 17.518-4.111 6.61-6.359 10.4-9.51 17.517-3.428 7.743-4.79 12.348-7.008 20.52-1.987 7.326-2.842 11.519-4.003 19.02-1.262 8.15-2.002 21.022-2.002 21.022l-14.015 1.001s-.129-13.978 1-22.524c1.15-8.697 2.455-13.205 4.844-21.46l.163-.561c2.438-8.43 4.45-12.979 7.997-20.997l.011-.025c3.819-8.634 6.698-13.218 12.012-21.021 5.61-8.238 9.243-12.707 16.517-19.52 7.419-6.95 11.453-10.544 20.02-16.016 7.81-4.989 11.675-7.747 20.521-10.511 4.391-1.372 7.438-2.517 12.013-3.003m-46.462 105.396c-.012.061-1.417 7.313-2.002 12.012-.582 4.671-1.001 12.013-1.001 12.013-.051.005-6.475.624-10.511 1.501-4.592.997-11.512 3.504-11.512 3.504s-.194-6.107 0-10.011c.195-3.918.999-9.993 1.001-10.01 0 0 6.883-5.224 12.013-7.007 4.473-1.554 11.948-1.998 12.012-2.002M75.303 73.284c.024.006 5.216 1.185 8.008 3.004 3.129 2.039 6.507 7.007 6.507 7.007L83.31 108.32s-4.652-4.001-8.008-6.006c-3.153-1.883-8.509-4.004-8.509-4.004.018-.066 2.21-8.333 4.004-13.514 1.58-4.562 4.505-11.512 4.505-11.512m72.66-.21s-3.226 7.558-5.005 12.512c-1.728 4.814-3.991 12.467-4.004 12.513-.069.004-7.842.435-12.513 2.002-5.31 1.781-12.513 7.007-12.513 7.007s1.507-8.318 3.003-13.513c1.315-4.565 3.994-11.484 4.005-11.512.032-.024 7.751-5.75 13.514-7.508 5.079-1.549 13.513-1.502 13.513-1.502M89.818 49.26s5.748-1.32 9.009 0c2.563 1.038 5.479 4.473 5.506 4.504L92.821 74.786c-.015-.022-3.145-4.58-6.006-6.507-2.62-1.763-7.508-3.003-7.508-3.003.016-.032 2.765-5.679 5.005-9.008 1.935-2.875 5.476-6.973 5.506-7.007m61.649 15.804s-8.433-.538-13.514 1.001c-5.504 1.668-12.959 6.968-13.013 7.007.026-.063 2.937-7.266 5.506-11.51 2.381-3.935 6.978-9.476 7.007-9.51l22.022-1.001zm-35.122-29.318-9.01 12.513s-2.889-2.4-5.004-3.504c-2.893-1.51-7.968-2.495-8.008-2.503l8.008-9.009zm47.134 10.299h-22.522l10.51-12.012c.042.004 3.197.317 5.505 0 2.208-.303 4.302-.675 6.507-1 2.707-.401 4.271-.502 7.007-.502h6.507zM121.35 30.74h-16.017c.027-.03 5.072-5.718 9.01-8.508 2.925-2.072 7.998-4.5 8.008-4.504h14.015zm55.643-17.728s15.015-1.502 23.023 0c8.008 1.501 4.505 2.503 4.505 2.503-.019.007-3.704 1.44-6.006 2.502-1.984.914-3.096 1.44-5.005 2.502-3.92 2.184-9.478 6.483-9.51 6.507 0 0-4.249-.82-7.007-1-2.341-.153-3.666-.153-6.006 0-2.758.18-4.303.427-7.007 1-2.784.591-7.008 2.002-7.008 2.002s2.707-2.485 4.505-4.004c1.912-1.615 3.032-2.463 5.005-4.003 2.033-1.589 3.203-2.442 5.256-4.005zM219.787.5c3.816 0 6.457.184 10.26.501 5.895.491 8.757.644 14.515 2.002 5.836 1.376 9.051 2.536 14.515 5.005 5.089 2.299 12.469 6.98 12.512 7.007-.036-.016-5.726-2.385-9.509-3.503-3.274-.968-5.153-1.38-8.509-2.002-5.603-1.038-8.816-1.475-14.515-1.502-4.902-.023-7.657.325-12.513 1-4.138.577-10.51 2.003-10.51 2.003-.016-.015-2.264-2.129-4.004-3.003-2.16-1.086-3.609-1.188-6.006-1.502-2.713-.355-4.272-.073-7.008 0-3.327.088-8.509.5-8.509.5s5.341-2.836 9.01-4.003c3.982-1.266 6.361-1.516 10.511-2.002 3.79-.444 5.943-.501 9.76-.501m-53.391.712c-.027.013-7.045 3.317-11.512 5.505a1042 1042 0 0 0-10.009 5.006l-12.514-.501s9.868-4.547 16.517-6.507c6.686-1.97 17.497-3.5 17.518-3.503" fill="url(#a)"/>
  <path d="m199.43 247.461.181-.466-.12-.047-.128.017zm12.012 4.004-.122.485zm18.518 2.503.047.498-.015-.997zm-14.013 1.001-.019-.5zm-15.016.5-.022-.5zm-7.508 0-.2.458.089.039.097.003zm-16.015-7.007.019-.5-.22.958zm12.512 0 .03.499zm-74.576-59.06.455-.207-.134-.293h-.321zm11.512 21.522-.416.278zm10.01 13.014-.379.326zm9.509 10.009-.352.356.011.009zm10.011 8.509-.294.405zm8.985 5.702.25-.432zm.524.304.251-.433zm12.013 6.507-.043.498.273-.942zm-11.512-1.502-.102.489zm-10.511-3.503.202-.457zm-12.512-7.508-.283.413zm-17.518-14.515-.361.346zm-14.516-19.519-.424.264zm-10.009-19.02v-.5h-.788l.335.713zm48.048 62.063-.13.483.354-.93zm-7.006-2.002.148-.478zm-6.006-2.002v-.5l-.164.972zm5.005 0 .223-.447-.105-.053h-.118zm-30.532-14.015.094-.491-.371.907zm7.007 1.001-.035.499zm7.008 0 .308-.393-.146-.115-.185.009zm11.512 9.01v.5h1.45l-1.142-.894zm-10.511 0-.277.416.126.084h.151zm63.564-1.001.008.5 1.557-.025-1.28-.886zm-14.514.5.032.499zm-6.507.501-.32.384.158.132.205-.018zm-12.012-10.011v-.5h-1.381l1.061.884zm20.02 0 .284-.411-.128-.089h-.156zm-38.539-26.026-.268-.423v.001zm7.008 1.002.185-.464zm6.005 2.002-.098.49zm5.005.5.377-.329-.143-.163-.215-.008zM169.9 226.94l.101.49.84-.173-.565-.646zm-6.507 1.001.036.499zm-6.006 0-.105-.488zm-5.506 2.502-.352.355.281.28.337-.211zm-9.009-9.509-.379.326zm-7.507-9.509-.477-.149-.077.243.153.205zm-46.548 0-.012-.5-1.092.026.733.81zm7.007 0 .019-.5zm10.51 1.001.387-.317-.125-.153-.196-.026zm13.514 16.516-.045.498 1.187.108-.755-.922zm-16.516-1.502-.371.336.131.145.194.017zm18.018-59.059-.098-.49zm8.509 3.003-.197.459zm8.509 2.002.477-.151-.097-.306-.32-.04zm5.005 14.014-.461.196zm7.006 14.014-.098.49 1.055.211-.519-.942zm-10.009-2.002-.098.49zm-6.507.501-.262-.426zm-2.503 5.505-.442.234.8 1.513.14-1.706zm-7.507-15.516-.462.193zm-5.506-15.515-.498-.04-.008.098.03.093zm15.516-25.026.5.005.015-1.847-.945 1.587zm.501 8.509-.493.082zm2.002 7.508-.173.469.977.361-.33-.988zm-5.006-1.502.096-.491zm-5.005-.5-.451-.216-.328.686.759.03zm3.504-7.007-.441-.236zm-65.067-49.05.04-.498-.458-.036-.075.453zm6.006 1.001.149-.477zm10.511 7.007.5.012.005-.221-.16-.152zm-.5 22.023-.27.421.75.478.02-.888zm-9.01-5.005.2-.459zm-9.009-3.003-.5-.008-.006.388.375.102zm.5-11.012-.497-.045zM183.415.711l-.053-.497zm11.511 0 .159.474-.125-.973zm-22.022 9.01.235.44zm-19.521 13.012-.319-.384zm-16.015 17.018-.388-.316zm-12.513 17.518-.425-.264zm-9.51 17.517-.457-.202zm-7.008 20.52-.482-.13zm-4.003 19.02-.495-.076zm-2.002 21.022.035.498.439-.031.025-.439zm-14.015 1.001-.5.004.005.532.53-.038zm1-22.524-.495-.065zm4.844-21.46-.48-.14zm.163-.561.48.14v-.001zm7.997-20.997.457.202v-.001zm.011-.025-.458-.202zm12.012-21.021-.413-.282zm16.517-19.52.342.365zm20.02-16.016.27.421zm20.521-10.511-.149-.477zm-34.449 102.393.491.096.122-.633-.643.038zm-2.002 12.012-.496-.062zm-1.001 12.013.048.498.426-.042.025-.428zm-10.511 1.501-.106-.489zm-11.512 3.504-.499.016.021.689.649-.235zm0-10.011-.499-.025zm1.001-10.01-.302-.398-.166.126-.027.207zm12.013-7.007-.164-.472zM75.303 73.284l.11-.487-.408-.093-.163.386zm8.008 3.004.273-.419zm6.507 7.007.484.126.057-.22-.128-.187zM83.31 108.32l-.326.379.608.523.202-.776zm-8.008-6.006.257-.429zm-8.509-4.004-.483-.129-.114.43.413.163zm4.004-13.514-.472-.164zm77.165-11.723.46.197.296-.692-.753-.005zm-5.005 12.513-.47-.169zm-4.004 12.513.027.499.352-.02.1-.338zm-12.513 2.002-.159-.474zm-12.513 7.007-.492-.089-.222 1.225 1.008-.731zm3.003-13.513-.48-.139zm4.005-11.512-.298-.401-.116.086-.052.135zm13.514-7.508-.146-.478zM89.818 49.261l-.112-.488-.16.037-.106.124zm9.009 0 .187-.464zm5.506 4.504.438.24.165-.302-.222-.262zM92.821 74.786l-.412.283.46.67.39-.713zm-6.006-6.507.28-.414zm-7.508-3.003-.45-.218-.268.552.595.151zm5.005-9.008-.415-.28zm67.155 8.798-.032.498.312.02.154-.27zm-13.514 1-.145-.478zm-13.013 7.007-.464-.187-.641 1.587 1.395-.992zm5.506-11.51-.428-.26zm7.007-9.51-.023-.5-.221.01-.141.17zm22.022-1.001.434.248.451-.789-.908.041zm-43.13-15.305.406.292.464-.644-.782-.14zm-9.01 12.513-.319.385.412.342.313-.435zm-5.004-3.504-.232.443zm-8.008-2.503-.374-.332-.583.656.862.167zm8.008-9.009.087-.492-.275-.05-.186.21zm61.148 12.802v.5h.207l.147-.146zm-22.522 0-.377-.33-.725.83h1.102zm10.51-12.012.05-.497-.256-.026-.17.194zm5.505 0 .068.496zm6.507-1-.073-.495zm7.007-.502v-.5zm6.507 0 .353.354.854-.854h-1.207zm-55.643-1.79v.5h.187l.141-.123zm-16.017 0-.374-.332-.737.831h1.111zm9.01-8.509-.289-.408zm8.008-4.504v-.5h-.113l-.103.049zm14.015 0 .327.377 1.013-.877h-1.34zm40.627-4.716-.05-.498-.141.014-.112.086zm23.023 0 .092-.492zm4.505 2.503-.137-.481-.023.006-.021.009zm-6.006 2.502-.209-.454zm-5.005 2.502-.243-.436zM184 27.027l-.094.491.222.043.178-.138zm-7.007-1 .032-.5zm-6.006 0 .032.498zm-7.007 1-.104-.489zm-7.008 2.002-.338-.368.497.843zm4.505-4.004-.323-.381zm5.005-4.003.308.394zm5.256-4.005.303.397zM219.787.5V0zm10.26.501-.041.498zm14.515 2.002.115-.487zm14.515 5.005.206-.456zm12.512 7.007-.192.461.46-.884zm-9.509-3.503.141-.48zm-8.509-2.002.091-.492zm-14.515-1.502.003-.5zm-12.513 1-.068-.494zm-10.51 2.003-.343.364.193.182.259-.058zm-4.004-3.003.224-.447zm-6.006-1.502-.065.496zm-7.008 0-.013-.5zm-8.509.5-.234-.44.274.94zm9.01-4.003-.151-.477zm10.511-2.002-.058-.497zm-43.631.211.213.452-.283-.947zm-11.512 5.505-.22-.45zm-10.009 5.006-.02.5.129.004.116-.058zm-12.514-.501-.209-.454.189.953zm16.517-6.507-.141-.48zM199.43 247.46l-.181.466c.057.022 7.261 2.815 12.071 4.023l.122-.485.122-.485c-4.74-1.191-11.885-3.959-11.953-3.985zm12.012 4.004-.122.485c7.106 1.785 18.54 2.512 18.609 2.517l.031-.499.032-.499c-.087-.006-11.427-.73-18.428-2.489zm18.518 2.503-.046-.498c-.073.007-8.542.798-13.986.999l.019.5.018.499c5.477-.201 13.974-.996 14.042-1.002zm-14.013 1.001-.019-.5c-5.84.215-9.164.24-15.019.5l.022.5.022.499c5.862-.26 9.133-.283 15.012-.5zm-15.016.5-.022-.5c-1.453.065-3.319.065-4.827.049-.753-.008-1.414-.021-1.888-.031l-.556-.013-.149-.004-.039-.001h-.012l-.015.5-.014.5h.014l.039.001.151.004.56.013c.476.01 1.141.022 1.898.031 1.512.016 3.4.016 4.882-.05zm-7.508 0 .201-.458-16.016-7.007-.2.458-.201.458 16.016 7.007zm-16.015-7.007-.019.5c.064.002 7.677.29 12.561-.001l-.03-.499-.029-.499c-4.827.287-12.39.002-12.464-.001zm12.512 0 .03.499c1.879-.112 4.268-.363 6.181-.586.958-.112 1.799-.216 2.401-.293l.708-.091.19-.026.05-.006.013-.002h.004l-.067-.496-.067-.496-.001.001h-.003l-.012.002-.049.006-.189.025-.704.091c-.599.077-1.436.181-2.39.292-1.909.222-4.275.471-6.124.581zm-74.576-59.06-.455.208c.029.064 6.239 13.651 11.551 21.592l.416-.278.416-.278c-5.26-7.862-11.437-21.373-11.473-21.451zm11.512 21.522-.416.278c3.579 5.35 5.847 8.198 10.047 13.062l.379-.326.378-.327c-4.18-4.842-6.422-7.657-9.972-12.965zm10.01 13.014-.379.326c3.535 4.094 9.525 10.027 9.537 10.039l.351-.356.352-.355c-.017-.017-5.978-5.922-9.483-9.981zm9.509 10.009-.341.365.001.001.003.003.013.012.05.047.194.181c.17.157.415.384.723.666.616.563 1.481 1.346 2.476 2.224 1.986 1.752 4.503 3.892 6.598 5.415l.294-.405.294-.404c-2.055-1.494-4.543-3.608-6.525-5.356a188 188 0 0 1-2.461-2.212c-.307-.28-.551-.506-.719-.661l-.192-.179-.049-.046-.013-.012-.003-.003h-.001zm10.011 8.509-.294.405c3.409 2.476 5.545 3.713 9.028 5.73l.251-.433.25-.432c-3.479-2.015-5.577-3.23-8.941-5.674zm8.985 5.702-.251.433.524.304.251-.433.251-.433-.525-.303zm.524.304-.251.433c2.202 1.275 5.212 2.905 7.667 4.215 1.229.655 2.32 1.23 3.104 1.642l.925.485.25.13.065.034.016.008.005.003h.001l.231-.443.23-.444-.001-.001-.004-.002-.016-.008-.065-.034-.249-.13-.923-.483c-.782-.411-1.872-.986-3.098-1.64-2.454-1.308-5.451-2.932-7.636-4.198zm12.013 6.507.042-.498-.001-.001h-.004l-.016-.001-.062-.006-.239-.021a174 174 0 0 1-3.84-.39c-2.347-.265-5.202-.638-7.29-1.075l-.102.49-.102.489c4.259.891 11.569 1.511 11.571 1.511zm-11.512-1.502.102-.49c-4.19-.876-6.474-1.731-10.411-3.47l-.202.457-.202.457c3.978 1.758 6.331 2.641 10.611 3.535zm-10.511-3.503.202-.457c-5.161-2.281-7.715-4.239-12.432-7.464l-.282.413-.283.413c4.692 3.207 7.33 5.226 12.593 7.552zm-12.512-7.508.282-.413c-7.318-5.001-11.33-8.061-17.439-14.447l-.361.345-.361.346c6.172 6.454 10.245 9.557 17.596 14.582zm-17.518-14.515.361-.345c-6.529-6.826-9.434-11.382-14.452-19.438l-.425.264-.424.264c5.027 8.07 7.976 12.698 14.579 19.601zm-14.516-19.519.425-.264c-4.338-6.964-9.957-18.914-9.982-18.968l-.452.212-.453.213c.02.042 5.663 12.049 10.038 19.071zm-10.009-19.02v.5h14.014v-1H101.33zm48.048 62.063.131-.483c-.038-.01-4.294-1.158-6.989-1.997l-.148.478-.149.477c2.717.845 6.991 1.998 7.025 2.008zm-7.006-2.002.148-.478c-2.338-.727-5.948-1.982-5.99-1.996l-.164.472-.164.472c.038.014 3.664 1.274 6.021 2.007zm-6.006-2.002v.5h5.005v-1h-5.005zm5.005 0-.224.447 8.008 4.004.223-.447.224-.447-8.008-4.004zm-30.532-14.015-.093.492h.004l.009.002.037.007.141.026.522.095c.443.079 1.064.186 1.771.299 1.409.227 3.179.48 4.581.579l.035-.499.035-.498c-1.355-.096-3.089-.344-4.493-.569-.7-.112-1.315-.219-1.754-.297l-.516-.093-.138-.026-.036-.007-.009-.001-.002-.001zm7.007 1.001-.035.499c1.388.098 3.158.098 4.571.074a118 118 0 0 0 2.445-.071l.037-.002h.012l-.022-.5-.023-.499h-.011l-.036.002-.139.006-.519.019c-.442.015-1.059.033-1.761.045-1.408.024-3.142.023-4.484-.071zm7.008 0-.308.394 11.512 9.01.308-.394.308-.394-11.512-9.009zm11.512 9.01v-.5h-10.511v1h10.511zm-10.511 0 .277-.416-15.015-10.011-.278.416-.277.416 15.016 10.011zm63.564-1.001-.007-.5c-.026.001-8.874.14-14.539.501l.032.499.032.499c5.637-.359 14.46-.499 14.49-.499zm-14.514.5-.032-.499c-1.276.081-2.906.207-4.215.312l-2.127.175-.13.011-.034.003-.009.001h-.003l.043.498.043.498h.002l.009-.001.033-.003.13-.011.484-.04c.41-.034.985-.082 1.639-.134a282 282 0 0 1 4.199-.311zm-6.507.501.32-.384-12.012-10.011-.32.384-.32.384 12.012 10.011zm-12.012-10.011v.5h20.02v-1h-20.02zm20.02 0-.285.411 13.014 9.01.284-.411.285-.411-13.014-9.01zm-38.539-26.026.267.422c1.017-.643 1.989-.653 3.043-.368.538.145 1.089.366 1.676.62.576.249 1.202.539 1.836.792l.186-.464.185-.464c-.617-.247-1.201-.518-1.809-.782-.597-.258-1.203-.503-1.813-.668-1.24-.335-2.52-.345-3.839.489zm7.008 1.002-.186.464c2.281.912 3.614 1.531 6.093 2.028l.098-.49.099-.49c-2.37-.476-3.609-1.052-5.919-1.976zm6.005 2.002-.098.49c1.97.395 5.084.509 5.085.51l.018-.5.019-.5c-.017 0-3.049-.114-4.925-.49zm5.005.5-.376.329 14.015 16.017.376-.33.376-.329-14.014-16.016zM169.9 226.94l-.101-.489h-.003l-.008.002-.033.007-.128.026-.478.094a96 96 0 0 1-1.627.298c-1.303.227-2.909.473-4.165.565l.036.498.036.499c1.308-.095 2.955-.349 4.265-.577a87 87 0 0 0 2.13-.397l.131-.026.034-.007.009-.002.002-.001h.001zm-6.507 1.001-.036-.498c-1.119.081-1.997-.036-2.939-.121s-1.917-.132-3.136.131l.105.488.106.489c1.073-.231 1.931-.194 2.835-.112.902.081 1.881.211 3.101.122zm-6.006 0-.105-.488c-1.217.262-2.634.909-3.726 1.473a30 30 0 0 0-1.94 1.094l.265.423.266.424c.01-.006.8-.5 1.868-1.052 1.079-.558 2.398-1.152 3.478-1.385zm-5.506 2.502.353-.354c-.029-.029-5.665-5.634-8.984-9.482l-.378.327-.379.326c3.348 3.883 9.013 9.515 9.036 9.538zm-9.009-9.509.378-.327c-3.061-3.55-7.439-9.42-7.484-9.481l-.401.299-.401.299c.041.055 4.441 5.955 7.529 9.536zm-7.507-9.509.477.149v-.001l.002-.005.007-.022.031-.091a13 13 0 0 1 .598-1.442c.427-.87 1.002-1.757 1.654-2.171l-.267-.422-.268-.422c-.905.573-1.581 1.687-2.016 2.574-.224.457-.397.88-.514 1.189-.059.155-.103.282-.134.371l-.035.104-.011.036-.001.002v.001zm-46.548 0 .012.5c.022-.001 4.266-.103 6.976-.001l.019-.499.019-.5c-2.747-.104-7.022 0-7.038 0zm7.007 0-.02.499c4.08.155 10.421.992 10.465.998l.065-.496.066-.496c-.035-.004-6.422-.848-10.557-1.005zm10.51 1.001-.387.316 13.514 16.517.387-.317.387-.316-13.514-16.517zm13.514 16.516.045-.498-16.516-1.501-.045.497-.046.498 16.517 1.502zm-16.516-1.502.37-.335-14.515-16.016-.37.336-.37.336 14.514 16.015zm18.018-59.059.098.49c1.09-.218 2.218.1 3.574.716.675.307 1.381.675 2.154 1.069.768.392 1.594.805 2.486 1.187l.197-.459.197-.46a39 39 0 0 1-2.426-1.159c-.759-.387-1.493-.77-2.194-1.089-1.397-.635-2.771-1.068-4.184-.785zm8.509 3.003-.197.459c1.621.695 3.793 1.204 5.534 1.537a56 56 0 0 0 2.868.47l.226.03.012.002h.005l.061-.496.06-.497h-.003l-.011-.001-.044-.006-.173-.023a54 54 0 0 1-2.813-.461c-1.729-.331-3.812-.824-5.328-1.474zm8.509 2.002-.477.15v.002l.002.005.006.019.023.074.091.285.342 1.057c.292.898.705 2.151 1.19 3.571.968 2.837 2.224 6.355 3.367 9.047l.461-.196.46-.195c-1.129-2.657-2.375-6.146-3.342-8.979a265 265 0 0 1-1.525-4.61l-.091-.283-.023-.073-.006-.018-.001-.005v-.001zm5.005 14.014-.461.196c2.397 5.64 7 14.006 7.029 14.059l.438-.241.438-.241c-.034-.062-4.611-8.383-6.984-13.968zm7.006 14.014.098-.49-10.009-2.002-.098.49-.098.49 10.009 2.002zm-10.009-2.002.098-.49c-2.495-.499-4.512-.881-6.867.565l.262.426.261.426c1.989-1.221 3.637-.939 6.148-.437zm-6.507.501-.262-.426c-1.246.765-1.914 2.292-2.275 3.516a13 13 0 0 0-.464 2.374l.498.041.498.041v-.003l.001-.009.004-.035q.003-.045.014-.131a12.4 12.4 0 0 1 .408-1.995c.35-1.186.932-2.389 1.839-2.947zm-2.503 5.505.442-.234c-.042-.08-4.921-9.31-7.487-15.474l-.462.192-.462.193c2.588 6.213 7.489 15.485 7.527 15.557zm-7.507-15.516.462-.192c-1.229-2.951-2.602-6.817-3.668-9.952a331 331 0 0 1-1.789-5.414l-.026-.081-.006-.02-.002-.006v-.001l-.477.151-.476.151v.002l.002.005.006.021.026.082a236 236 0 0 0 .48 1.483c.323.993.78 2.378 1.315 3.949 1.068 3.139 2.449 7.031 3.691 10.015zm-5.506-15.515.499.039c0-.01.108-1.342.522-2.723.208-.691.485-1.367.845-1.89.36-.524.77-.849 1.235-.942l-.098-.49-.098-.49c-.815.163-1.421.712-1.863 1.355-.443.644-.756 1.429-.978 2.17a15.6 15.6 0 0 0-.562 2.931zm15.516-25.026-.5-.004v.016l-.001.045v.174a88 88 0 0 0 .047 2.809c.058 1.721.184 3.875.462 5.551l.493-.082.493-.082c-.267-1.608-.391-3.708-.448-5.42a87 87 0 0 1-.045-2.143c-.002-.269-.002-.484-.002-.632v-.17l.001-.043v-.014zm.501 8.509-.493.082c.253 1.528.76 3.428 1.2 4.935a83 83 0 0 0 .754 2.446l.049.15.013.039.003.01.001.003v.001l.475-.158.474-.158v-.001l-.001-.002-.003-.009-.012-.038-.049-.147-.176-.548a87 87 0 0 1-.568-1.868c-.437-1.5-.931-3.353-1.174-4.819zm2.002 7.508.173-.469h-.001l-.002-.001-.007-.003-.026-.009-.1-.037-.372-.132a59 59 0 0 0-1.262-.428c-1.005-.328-2.28-.711-3.313-.914l-.096.491-.096.491c.97.19 2.197.557 3.195.883a54 54 0 0 1 1.701.585l.025.009.006.002.001.001h.001zm-5.006-1.502.096-.491c-.994-.195-2.269-.321-3.283-.399a51 51 0 0 0-1.659-.103l-.103-.005-.027-.001h-.007l-.001-.001h-.001l-.02.5-.02.5h.008l.026.001.099.004.371.019c.316.017.757.044 1.257.083 1.007.077 2.234.201 3.168.384zm-5.005-.5.451.216v-.001l.001-.002.005-.009.017-.037.068-.141.253-.524c.215-.445.517-1.067.865-1.773a163 163 0 0 1 2.285-4.5l-.441-.236-.441-.236a164 164 0 0 0-2.301 4.531c-.348.708-.651 1.332-.867 1.779-.109.223-.195.403-.254.526l-.068.142-.018.037-.005.009-.001.002v.001zm3.504-7.007.441.236a163 163 0 0 1 2.551-4.531 256 256 0 0 1 1.331-2.271l.082-.138.021-.036.006-.009.001-.002v-.001l-.429-.256-.43-.255-.002.003-.005.009-.022.036-.082.14-.307.518c-.259.44-.621 1.057-1.029 1.76a163 163 0 0 0-2.568 4.561zm-65.067-49.05-.039.499c.043.003 3.699.296 5.897.98l.148-.478.149-.477c-2.324-.723-6.096-1.021-6.115-1.022zm6.006 1.001-.148.478c2.26.703 4.824 2.402 6.854 3.963a47 47 0 0 1 3.46 2.928l.345-.362.345-.361a48 48 0 0 0-3.54-2.998c-2.045-1.572-4.727-3.366-7.167-4.125zm10.511 7.007-.5-.011-.5 22.022.5.012.5.011.5-22.022zm-.5 22.023.27-.422h-.001l-.004-.002-.012-.008-.046-.029-.176-.112c-.154-.096-.377-.236-.657-.409-.559-.345-1.342-.822-2.242-1.35-1.794-1.052-4.068-2.316-5.942-3.132l-.2.459-.2.458c1.817.791 4.048 2.029 5.836 3.078a116 116 0 0 1 3.046 1.852l.044.029.011.007.003.001v.001zm-9.01-5.005.2-.459c-3.424-1.49-9.033-3.015-9.077-3.027l-.131.483-.132.482c.059.016 5.595 1.523 8.94 2.979zm-9.009-3.003.5.008v-.005l.002-.071a129 129 0 0 1 .022-1.038c.016-.696.042-1.669.08-2.775.077-2.215.202-4.957.395-7.086l-.498-.045-.498-.045c-.196 2.158-.321 4.923-.398 7.141a264 264 0 0 0-.103 3.83l-.001.058v.019zm.5-11.012.498.045c.389-4.286 1.49-10.927 1.498-10.974l-.493-.082-.494-.081c-.006.039-1.114 6.717-1.506 11.047zM183.415.711l.052.497c2.201-.234 5.052-.234 7.367-.175a117 117 0 0 1 4.054.177h.005l.033-.499.034-.499h-.006l-.015-.001-.061-.004a60 60 0 0 0-1.096-.062 120 120 0 0 0-2.922-.112c-2.323-.06-5.229-.06-7.498.18zm11.511 0-.158-.474h-.003l-.008.003-.03.01q-.04.015-.117.04l-.453.154a246 246 0 0 0-7.32 2.65c-4.477 1.703-10.007 3.965-14.169 6.186l.236.44.235.442c4.103-2.19 9.584-4.433 14.053-6.133a247 247 0 0 1 7.738-2.792l.116-.039.029-.01.008-.002h.002zm-22.022 9.01-.236-.441c-8.014 4.277-12.606 7.265-19.604 13.069l.319.384.32.385c6.941-5.756 11.474-8.707 19.436-12.956zm-19.521 13.012-.319-.384c-7.067 5.86-10.312 10.02-16.084 17.086l.388.316.387.316c5.775-7.07 8.965-11.158 15.948-16.949zm-16.015 17.018-.388-.316c-5.332 6.528-8.098 10.413-12.55 17.57l.425.264.425.264c4.429-7.121 7.17-10.972 12.475-17.466zm-12.513 17.518-.425-.264c-4.116 6.618-6.377 10.43-9.542 17.579l.457.202.457.203c3.138-7.088 5.372-10.855 9.478-17.456zm-9.51 17.517-.457-.202c-3.443 7.776-4.813 12.409-7.033 20.592l.482.13.483.132c2.215-8.163 3.569-12.74 6.982-20.45zm-7.008 20.52-.482-.13c-1.993 7.345-2.852 11.556-4.016 19.074l.495.076.494.077c1.158-7.485 2.01-11.66 3.992-18.965zm-4.003 19.02-.495-.076c-.633 4.093-1.135 9.364-1.478 13.603a391 391 0 0 0-.393 5.323c-.045.668-.078 1.203-.101 1.572l-.026.423-.006.11-.002.028v.007l-.001.002v.001l.5.029.499.028v-.009l.002-.027.006-.109.026-.422c.023-.367.056-.9.101-1.567.089-1.332.221-3.193.392-5.309.343-4.234.842-9.474 1.47-13.53zm-2.002 21.022-.036-.499-14.015 1.001.036.499.035.498 14.015-1.001zm-14.015 1.001.5-.005v-.04l-.001-.118-.002-.456a290 290 0 0 1 .08-7.426c.108-4.56.358-10.169.92-14.413l-.496-.066-.496-.065c-.569 4.301-.82 9.954-.928 14.52a291 291 0 0 0-.078 7.913v.16zm1-22.524.497.066c1.144-8.658 2.44-13.137 4.827-21.388l-.48-.139-.48-.139c-2.39 8.26-3.704 12.799-4.859 21.535zm4.844-21.46.48.139.163-.56-.48-.14-.48-.14-.163.56zm.163-.561.48.139c2.428-8.396 4.428-12.918 7.974-20.934l-.457-.202-.457-.203c-3.549 8.022-5.572 12.596-8.02 21.06zm7.997-20.997.457.201.011-.024-.457-.202-.458-.201-.011.024zm.011-.025.457.203c3.802-8.596 6.663-13.153 11.969-20.943l-.414-.281-.413-.282c-5.323 7.816-8.22 12.429-12.057 21.101zm12.012-21.021.414.281c5.593-8.212 9.202-12.652 16.445-19.436l-.342-.365-.342-.365c-7.305 6.843-10.961 11.341-16.588 19.603zm16.517-19.52.342.365c7.41-6.94 11.418-10.511 19.948-15.96l-.27-.421-.269-.422c-8.604 5.497-12.664 9.115-20.093 16.073zm20.02-16.016.27.421c7.816-4.993 11.628-7.714 20.4-10.455l-.149-.477-.149-.477c-8.919 2.787-12.837 5.582-20.641 10.566zm20.521-10.511.149.477c4.414-1.38 7.403-2.504 11.916-2.983l-.052-.497-.053-.497c-4.637.492-7.741 1.658-12.109 3.023zm-34.449 102.393-.491-.095c-.011.058-1.42 7.326-2.007 12.045l.496.062.496.062c.583-4.68 1.984-11.914 1.997-11.978zm-2.002 12.012-.496-.062c-.293 2.349-.544 5.363-.722 7.784a330 330 0 0 0-.263 3.936l-.015.242-.003.063-.001.016v.005l.499.029.499.028v-.005l.001-.015.004-.063.014-.24.055-.894c.049-.76.119-1.822.208-3.029.177-2.418.427-5.411.716-7.733zm-1.001 12.013-.048-.498c-.045.004-6.499.626-10.569 1.51l.106.489.106.488c4.002-.869 10.396-1.486 10.453-1.491zm-10.511 1.501-.106-.489c-2.322.505-5.22 1.387-7.527 2.139a162 162 0 0 0-4.028 1.376l-.016.006-.004.001-.001.001.17.47.171.47.001-.001.003-.001.015-.005.058-.021.226-.081a147 147 0 0 1 3.715-1.264c2.301-.75 5.159-1.619 7.429-2.113zm-11.512 3.504.5-.016v-.004l-.001-.013-.001-.052-.006-.199a238 238 0 0 1-.065-3.264c-.024-2.012-.024-4.502.073-6.438l-.5-.025-.499-.025c-.098 1.969-.098 4.484-.074 6.501a240 240 0 0 0 .066 3.279l.005.201.002.053v.016l.001.001v.001zm0-10.011.5.025c.193-3.895.994-9.948.997-9.969l-.496-.066-.495-.065c-.002.012-.809 6.108-1.005 10.05zm1.001-10.01.303.399v-.001l.004-.003.014-.011.058-.043.224-.166a80 80 0 0 1 3.752-2.59c2.356-1.525 5.317-3.249 7.822-4.119l-.164-.473-.164-.472c-2.625.912-5.67 2.692-8.038 4.225a79 79 0 0 0-3.802 2.624l-.23.171-.075.057-.004.003-.002.001zm12.013-7.007.164.473c2.184-.759 5.128-1.254 7.558-1.559a72 72 0 0 1 4.319-.416l-.029-.5-.03-.499c-.038.003-1.934.115-4.385.423-2.442.306-5.473.811-7.761 1.606zM75.303 73.284l-.11.488h.004l.011.003.044.01a24 24 0 0 1 .793.199c.528.138 1.258.34 2.073.599 1.643.52 3.584 1.254 4.92 2.124l.273-.419.273-.419c-1.456-.948-3.507-1.714-5.164-2.24a41 41 0 0 0-3.006-.832zm8.008 3.004-.273.42c1.497.974 3.084 2.676 4.314 4.166a43 43 0 0 1 2.044 2.69l.007.01.001.002.414-.281.413-.281v-.001l-.003-.004-.007-.011-.03-.044-.116-.164a44 44 0 0 0-1.952-2.552c-1.24-1.504-2.907-3.306-4.539-4.369zm6.507 7.007-.484-.126-6.507 25.026.484.125.484.126 6.507-25.025zM83.31 108.32l.326-.379v-.001l-.004-.002-.01-.009-.04-.034-.155-.132c-.135-.114-.33-.279-.576-.484-.491-.408-1.181-.973-1.976-1.602-1.586-1.253-3.609-2.772-5.316-3.792l-.257.429-.256.43c1.648.985 3.63 2.469 5.209 3.717.787.623 1.47 1.183 1.956 1.587.243.202.437.366.57.478l.151.129.04.033.009.009.002.002h.001zm-8.008-6.006.257-.429c-1.604-.958-3.755-1.97-5.491-2.737a103 103 0 0 0-3.028-1.278l-.046-.019-.012-.005h-.003l-.001-.001-.185.465-.184.465h.004l.011.005.045.018a81 81 0 0 1 .82.334c.548.228 1.312.55 2.175.931 1.73.764 3.833 1.756 5.382 2.681zm-8.509-4.004.484.128c.018-.07 2.206-8.318 3.993-13.478l-.473-.164-.472-.164c-1.8 5.201-3.998 13.487-4.015 13.55zm4.004-13.514.473.163c.785-2.268 1.908-5.137 2.836-7.443a331 331 0 0 1 1.624-3.96l.025-.058.006-.015.002-.004-.46-.195-.462-.194v.002l-.002.003-.006.016-.025.059-.096.23a287 287 0 0 0-1.534 3.743c-.93 2.309-2.06 5.196-2.853 7.49zm77.165-11.723-.46-.196v.001l-.002.005-.007.016-.027.065-.106.249-.391.925c-.33.787-.79 1.888-1.305 3.144-1.029 2.51-2.284 5.647-3.177 8.135l.47.169.471.169c.885-2.466 2.133-5.585 3.161-8.093a447 447 0 0 1 1.692-4.06l.105-.247.027-.064.007-.016.002-.004v-.001zm-5.005 12.513-.47-.169c-1.734 4.83-4.001 12.497-4.014 12.54l.48.142.479.141c.014-.047 2.273-7.686 3.996-12.485zm-4.004 12.513-.028-.5c-.054.003-7.898.436-12.644 2.028l.159.474.159.474c4.595-1.541 12.298-1.972 12.381-1.977zm-12.513 2.002-.159-.474c-2.713.909-5.882 2.688-8.352 4.221a84 84 0 0 0-3.97 2.624l-.241.171-.062.045-.017.012-.004.003h-.001v.001l.293.404.294.405.001-.001.004-.002.014-.011.061-.043.235-.167a83 83 0 0 1 3.92-2.592c2.459-1.526 5.546-3.251 8.143-4.122zm-12.513 7.007.492.089v-.001l.001-.004.003-.018.013-.07.05-.272a229 229 0 0 1 .871-4.431c.564-2.727 1.311-6.09 2.054-8.668l-.481-.138-.48-.139c-.754 2.617-1.508 6.011-2.072 8.743a245 245 0 0 0-.683 3.435c-.083.431-.147.777-.192 1.016l-.05.274-.013.071-.004.018v.005l-.001.001zm3.003-13.513.481.138c1.307-4.54 3.978-11.437 3.99-11.47l-.466-.18-.466-.18c-.01.023-2.698 6.964-4.019 11.553zm4.005-11.512.298.401a75 75 0 0 1 4.575-3.08c2.647-1.65 5.971-3.492 8.787-4.35l-.146-.479-.146-.478c-2.947.899-6.364 2.8-9.024 4.458-2.67 1.664-4.62 3.11-4.642 3.126zm13.514-7.508.146.478c2.481-.756 5.811-1.13 8.548-1.31a80 80 0 0 1 4.724-.17h.093l.002-.5.003-.5h-.099l-.28.001a81 81 0 0 0-4.509.17c-2.75.183-6.177.56-8.774 1.353zM89.818 49.261l.112.487h.003l.01-.003.047-.01a18 18 0 0 1 .863-.167c.58-.102 1.386-.223 2.29-.304 1.835-.165 3.984-.152 5.496.46l.188-.463.187-.464c-1.748-.708-4.105-.695-5.96-.53a29 29 0 0 0-3.277.49l-.052.012-.014.003-.004.001zm9.009 0-.188.463c1.19.482 2.503 1.545 3.549 2.53 1.034.975 1.756 1.826 1.763 1.834l.382-.323.381-.324a26 26 0 0 0-1.84-1.914c-1.06-1-2.486-2.174-3.86-2.73zm5.506 4.504-.439-.24-11.512 21.021.439.24.438.24 11.512-21.021zM92.821 74.786l.412-.283a40 40 0 0 0-1.962-2.574c-1.147-1.39-2.683-3.058-4.177-4.064l-.28.414-.278.415c1.367.921 2.827 2.495 3.964 3.871a39 39 0 0 1 1.909 2.504zm-6.006-6.507.28-.414c-1.368-.921-3.298-1.689-4.854-2.222a43 43 0 0 0-2.807-.85h-.003v-.001l-.124.484-.123.485h.003l.01.003.04.01.155.042a42 42 0 0 1 2.525.774c1.543.527 3.367 1.261 4.619 2.104zm-7.508-3.003.45.22c.019-.04 2.752-5.654 4.97-8.95l-.415-.278-.415-.28c-2.263 3.364-5.027 9.043-5.04 9.07zm5.005-9.008.415.279c1.915-2.846 5.435-6.92 5.47-6.96l-.38-.326-.377-.327c-.026.03-3.588 4.15-5.543 7.055zm67.155 8.798.032-.5h-.007l-.019-.001-.073-.004-.281-.015a69 69 0 0 0-4.514-.057c-2.751.058-6.187.308-8.797 1.099l.145.478.145.479c2.471-.749 5.793-.999 8.528-1.057a68 68 0 0 1 4.445.057l.342.018.017.001h.005zm-13.514 1-.145-.478c-2.815.853-6.098 2.622-8.663 4.164a77 77 0 0 0-4.495 2.914l.29.407.29.408a75 75 0 0 1 4.431-2.872c2.552-1.534 5.747-3.25 8.437-4.064zm-13.013 7.007.464.188c.028-.071 2.925-7.235 5.47-11.44l-.428-.258-.428-.26c-2.593 4.286-5.519 11.527-5.542 11.583zm5.506-11.51.428.258c2.358-3.896 6.93-9.408 6.963-9.449l-.384-.32-.385-.319c-.024.03-4.646 5.599-7.05 9.57zm7.007-9.51.022.5 22.023-1.002-.023-.5-.023-.499-22.022 1.001zm22.022-1.001-.434-.248-8.008 14.013.434.249.434.248 8.008-14.014zm-43.13-15.305-.406-.292-9.009 12.513.405.292.406.292 9.01-12.513zm-9.01 12.513.32-.385h-.001l-.002-.002-.006-.005-.026-.022-.097-.079-.361-.29a52 52 0 0 0-1.236-.955c-.991-.741-2.269-1.638-3.364-2.21l-.231.444-.232.443c1.02.533 2.245 1.388 3.228 2.123.488.366.911.697 1.212.937q.228.181.352.283l.094.077.024.02.005.004.002.001zm-5.004-3.504.231-.443c-1.498-.782-3.535-1.418-5.176-1.855-1.65-.44-2.942-.69-2.968-.696l-.095.491-.095.49c.014.004 1.28.25 2.9.681 1.63.434 3.576 1.047 4.971 1.775zm-8.008-2.503.374.332 8.007-9.009-.373-.332-.374-.332-8.008 9.009zm8.008-9.009-.088.492 14.014 2.503.088-.492.088-.492-14.015-2.503zm61.148 12.802v-.5h-22.522v1h22.522zm-22.522 0 .376.33 10.511-12.012-.377-.33-.376-.329-10.511 12.012zm10.51-12.012-.049.498c.036.003 3.247.324 5.622-.002l-.068-.496-.068-.495c-2.241.308-5.34.002-5.387-.002zm5.505 0 .068.496c2.203-.303 4.334-.68 6.512-1.002l-.073-.495-.073-.494c-2.232.33-4.289.696-6.502 1zm6.507-1 .073.494c2.681-.396 4.22-.496 6.934-.496v-1c-2.759 0-4.347.102-7.08.507zm7.007-.502v.5h6.507v-1h-6.507zm6.507 0-.354-.353-13.514 13.513.354.354.354.354 13.513-13.514zm-55.643-1.79v-.5h-16.017v1h16.017zm-16.017 0 .375.33c.035-.038 5.041-5.68 8.924-8.43l-.289-.409-.289-.408c-3.993 2.83-9.076 8.563-9.095 8.585zm9.01-8.509.289.408c1.435-1.016 3.411-2.129 5.042-2.993a94 94 0 0 1 2.835-1.44l.043-.021.011-.006.004-.001-.216-.451-.216-.451c-.002 0-5.115 2.446-8.081 4.547zm8.008-4.504v.5h14.015v-1h-14.015zm14.015 0-.328-.378-15.015 13.012.327.378.328.378 15.015-13.013zm40.627-4.716.05.497h.01l.032-.004.126-.012.487-.045a166 166 0 0 1 7.823-.5c4.754-.187 10.46-.184 14.403.555l.092-.491.092-.492c-4.065-.762-9.87-.759-14.626-.57a166 166 0 0 0-8.366.547l-.129.013-.033.003h-.008l-.002.001h-.001zm23.023 0-.092.491c1.992.374 3.24.711 3.996 1 .379.145.613.27.751.368.145.103.134.14.12.093a.2.2 0 0 1 .018-.147.5.5 0 0 1-.116.085 1.5 1.5 0 0 1-.289.125l-.019.006-.003.001h.001l.138.48.138.481h.002l.004-.001.011-.004.037-.011q.046-.015.12-.043a2.5 2.5 0 0 0 .36-.168c.127-.073.29-.186.413-.347a.82.82 0 0 0 .146-.732c-.076-.267-.275-.472-.502-.633-.233-.166-.554-.327-.973-.487-.839-.32-2.156-.671-4.169-1.049zm4.505 2.503-.181-.466c-.016.006-3.716 1.445-6.034 2.514l.209.454.209.454c2.286-1.053 5.957-2.482 5.978-2.49zm-6.006 2.502-.209-.454c-1.989.916-3.114 1.447-5.039 2.52l.243.436.244.437c1.892-1.054 2.99-1.573 4.97-2.485zm-5.005 2.502-.243-.436c-3.959 2.205-9.547 6.528-9.572 6.548l.305.395.306.396c.038-.03 5.566-4.304 9.448-6.466zM184 27.027l.095-.49h-.001l-.002-.001-.01-.002-.036-.007-.141-.027a95 95 0 0 0-2.294-.4c-1.41-.227-3.182-.481-4.586-.573l-.032.5-.033.498c1.354.089 3.087.336 4.491.563a98 98 0 0 1 2.269.395l.139.026.035.007.009.002h.003zm-7.007-1 .032-.5c-2.362-.154-3.709-.154-6.071 0l.033.5.032.498c2.319-.15 3.622-.15 5.941 0zm-6.006 0-.033-.5c-2.787.182-4.356.434-7.078 1.011l.104.49.104.489c2.686-.57 4.206-.814 6.935-.992zm-7.007 1-.104-.489c-1.414.3-3.183.806-4.589 1.233a116 116 0 0 0-2.284.721l-.14.047-.037.012-.009.003h-.002l-.001.001.158.474.159.475.002-.001.009-.003.036-.012.137-.045.514-.168c.437-.14 1.05-.334 1.748-.547 1.402-.426 3.137-.92 4.507-1.212zm-7.008 2.002.338.369h.001l.001-.002.006-.005.023-.021.088-.082.331-.301c.281-.256.675-.614 1.125-1.018.901-.81 2.022-1.807 2.915-2.562l-.323-.382-.323-.381a137 137 0 0 0-2.938 2.581 213 213 0 0 0-1.461 1.326l-.09.081-.023.022-.006.005-.001.002h-.001zm4.505-4.004.323.382c1.903-1.607 3.014-2.448 4.99-3.991l-.308-.395-.308-.393c-1.969 1.537-3.098 2.392-5.02 4.015zm5.005-4.003.308.394c2.031-1.587 3.191-2.432 5.251-4.002l-.303-.397-.303-.398c-2.045 1.558-3.225 2.418-5.261 4.009zm5.256-4.005.303.397 5.255-4.004-.303-.397-.303-.398-5.255 4.004zM219.787.5V1c3.796 0 6.421.183 10.219.5l.041-.499.042-.498C226.28.185 223.624 0 219.787 0zm10.26.501-.041.498c5.898.492 8.725.642 14.441 1.99l.115-.486.115-.487C238.878 1.15 235.981.994 230.089.503zm14.515 2.002-.115.487c5.8 1.368 8.985 2.516 14.424 4.974l.206-.456.206-.456c-5.49-2.48-8.735-3.65-14.606-5.036zm14.515 5.005-.206.456c5.051 2.281 12.401 6.942 12.451 6.973l.267-.422.268-.423c-.037-.023-7.448-4.724-12.574-7.04zm12.512 7.007.193-.462c-.032-.013-5.747-2.393-9.561-3.52l-.141.479-.142.48c3.753 1.11 9.418 3.467 9.459 3.484zm-9.509-3.503.141-.48c-3.294-.974-5.19-1.39-8.559-2.014l-.091.492-.091.491c3.344.62 5.205 1.028 8.458 1.99zm-8.509-2.002.091-.492c-5.622-1.041-8.866-1.483-14.603-1.51l-.003.5-.002.5c5.659.027 8.841.459 14.426 1.493zm-14.515-1.502.003-.5c-4.939-.024-7.722.329-12.584 1.006l.068.495.069.495c4.848-.675 7.576-1.02 12.442-.996zm-12.513 1-.068-.494c-2.086.29-4.726.793-6.838 1.222a225 225 0 0 0-3.43.724l-.21.046-.055.013-.014.003h-.004l.109.489.109.488h.001l.003-.001.014-.003.262-.058a208 208 0 0 1 3.414-.721c2.108-.428 4.723-.926 6.776-1.212zm-10.51 2.003.342-.364a29 29 0 0 0-1.381-1.202c-.786-.644-1.819-1.42-2.741-1.884l-.224.447-.225.447c.819.41 1.78 1.128 2.557 1.764.769.63 1.326 1.153 1.329 1.156zm-4.004-3.003.224-.447c-2.249-1.13-3.785-1.24-6.165-1.55l-.065.495-.065.496c2.414.315 3.775.412 5.846 1.453zm-6.006-1.502.065-.496c-2.765-.362-4.412-.075-7.086-.004l.013.5.013.5c2.797-.074 4.268-.353 6.93-.004zm-7.008 0-.013-.5c-1.674.044-3.81.17-5.522.285a276 276 0 0 0-2.783.2l-.171.013-.044.003-.011.001h-.004l.039.499.04.498h.015q.015-.003.043-.004l.17-.014a247 247 0 0 1 2.772-.199c1.71-.114 3.829-.238 5.482-.282zm-8.509.5.235.442h.001l.002-.001.012-.006.044-.024.174-.09a88 88 0 0 1 2.876-1.433c1.791-.853 4.017-1.842 5.818-2.415l-.152-.476-.151-.477c-1.869.595-4.147 1.608-5.945 2.465a96 96 0 0 0-3.086 1.541l-.046.025-.015.008h-.001zm9.01-4.003.152.476c3.931-1.25 6.267-1.495 10.417-1.981L210.027 1l-.058-.497c-4.151.487-6.572.74-10.604 2.022zm10.511-2.002.058.497c3.764-.441 5.896-.498 9.702-.498V0c-3.828 0-6.002.057-9.818.504zm-43.631.211-.213-.452c-.027.012-7.048 3.318-11.519 5.508l.22.449.22.449c4.463-2.186 11.477-5.488 11.505-5.502zm-11.512 5.505-.22-.45a1040 1040 0 0 0-10.015 5.01l.226.446.225.446c.046-.024 6.097-3.09 10.004-5.003zm-10.009 5.006.02-.5-12.514-.5-.02.499-.02.5 12.514.5zm-12.514-.501.209.454h.002l.005-.003.021-.01.083-.038.323-.147a216 216 0 0 1 5.315-2.313c3.295-1.381 7.404-2.999 10.701-3.97l-.142-.48-.141-.48c-3.353.988-7.503 2.624-10.804 4.007a214 214 0 0 0-5.668 2.473l-.084.04-.022.01-.005.002h-.002zm16.517-6.507.142.48c6.644-1.959 17.418-3.484 17.446-3.488l-.07-.495-.07-.495c-.013.002-10.862 1.536-17.589 3.518z" fill="#000"/>
  <defs>
    <linearGradient id="a" x1="171.194" y1=".5" x2="171.194" y2="255.527" gradientUnits="userSpaceOnUse">
      <stop stop-color="#fff"/>
      <stop offset=".418" stop-color="#999"/>
    </linearGradient>
  </defs>
</svg>
